<?xml version="1.0" encoding="utf-8"?>
<!-- Generator: Adobe Illustrator 22.0.0, SVG Export Plug-In . SVG Version: 6.00 Build 0)  -->
<svg version="1.1" id="Calque_1" xmlns="http://www.w3.org/2000/svg" xmlns:xlink="http://www.w3.org/1999/xlink" x="0px" y="0px"
	 viewBox="0 0 351.3 283.4" style="enable-background:new 0 0 351.3 283.4;" xml:space="preserve">
<style type="text/css">
	.st0{fill:#E53535;}
</style>
<g id="Blrx3j.tif">
	<g>
		<path class="st0" d="M248.6,283.4c11.5,0,24.4-2,38-7c29-10.6,48-29.6,63.8-51.2c1.8-2.5-0.1-3.1-2.2-4
			c-9.4-3.9-18.8-7.8-28.3-11.7c-9.1-3.7-9.1-3.6-15.1,3.3c-0.9,1-1.6,1.9-2.4,2.8c-12.3,12.8-26.2,23.9-46.7,27.1
			c-20,3.1-38.1-1.3-55.3-9.6c-15.6-7.5-30.2-16.4-46.7-22.5c-34.4-12.7-68.3-13.3-101.3,3c-22.9,11.3-38.9,28-52.4,46.5
			c-1.7,2.3-0.6,3.1,1.8,4.1c9,3.5,17.9,7.2,26.8,10.8c11,4.4,10.8,4.4,18.2-3.8c16.1-17.8,35.4-30.6,64.6-29.4
			c12.9,0.6,24.6,4,35.7,9.2c10.7,5.1,21.1,10.6,31.7,15.8C198.9,276.9,220.6,283.6,248.6,283.4z M106.2,0c-14.6,0-28.6,1.9-42,7
			C35.4,17.9,16.1,37,0,58.6c-1.9,2.7-0.1,3.4,2.3,4.3c11.3,4.5,22.7,9,33.7,13.8c3.3,1.4,4.6,0.5,6.2-1.7c4-5.2,8.5-10.1,13.8-14.6
			C69.2,48.8,84.7,41,104.7,40.3c18.5-0.7,34.5,5.1,49.7,12.7c11.8,5.8,23.1,12.3,35.4,17.5c30,12.4,60.9,16,92.8,5.8
			c31.1-9.9,51.2-29.8,67.9-52.4c1.7-2.4,0.4-3.1-1.9-4c-11-4.4-21.9-8.8-32.6-13.5c-4-1.7-5.8-1.5-8.5,1.8
			c-9.7,12.5-21.7,23.4-38.5,29.7c-21.6,7.9-42.4,5-62.6-3.5c-15.8-6.7-30.1-15.7-46-22.5C143.3,4.6,125.5,0,106.2,0z M242.9,182.7
			c13.6,0.1,25.2-1.3,36.4-4.6c33-9.8,54.1-30.1,71.4-54c1.7-2.4-0.4-2.8-2.1-3.6c-11.5-4.7-22.9-9.3-34.2-14.1
			c-3.2-1.3-4.6-0.5-6.2,1.7c-4,5.6-9,10.7-14.5,15.4c-16.6,14.5-36.4,21.9-61,18.8c-14.5-1.8-27.3-7.3-39.5-13.6s-24.1-13-37.2-18
			C119.3,96.5,83.2,96.3,48.4,115c-20.8,11.2-35.6,27-48.2,44.3c-1.8,2.5-0.4,3.1,1.8,4c11.5,4.6,22.9,9.3,34.2,14.1
			c2.8,1.2,4.3,0.9,5.8-1.3c4.4-5.8,9.5-11.2,15.2-16.2c15.8-13.7,34.8-20.8,58.3-18.7c13.9,1.3,26.1,6.1,37.8,11.8
			c10.1,4.9,19.9,10.4,30.1,15.1C202.4,177.1,222.5,182.9,242.9,182.7z"/>
		<path class="st0" d="M248.6,283.4c-28.1,0.2-49.7-6.6-70-16.5c-10.6-5.2-21.1-10.7-31.7-15.8c-11-5.2-22.8-8.6-35.7-9.2
			c-29-1.2-48.5,11.5-64.6,29.4c-7.3,8.1-7.3,8.2-18.2,3.8c-8.9-3.6-17.8-7.2-26.8-10.8c-2.4-1-3.5-1.8-1.8-4.1
			c13.6-18.5,29.5-35.2,52.4-46.5c33-16.3,67-15.6,101.3-3c16.6,6.1,31.2,14.9,46.7,22.5c17.2,8.3,35.3,12.7,55.3,9.6
			c20.5-3.2,34.4-14.2,46.7-27.1c0.9-0.9,1.7-1.9,2.4-2.8c6-7,6-7,15.1-3.3c9.5,3.8,18.9,7.8,28.3,11.7c2.1,0.9,4,1.4,2.2,4
			c-15.8,21.6-34.8,40.6-63.8,51.2C273,281.4,260.1,283.5,248.6,283.4z"/>
		<path class="st0" d="M106.2,0c19.4,0,37.2,4.6,54.1,11.8c15.8,6.7,30.1,15.7,46,22.5c20.2,8.5,41.1,11.4,62.6,3.5
			c16.8-6.2,28.6-17.2,38.4-29.7c2.6-3.3,4.5-3.6,8.5-1.8c10.7,4.7,21.7,9,32.6,13.5c2.3,0.9,3.7,1.6,1.9,4
			c-16.7,22.6-36.7,42.5-67.9,52.4c-31.9,10.1-62.9,6.6-92.8-5.8c-12.3-5.1-23.6-11.6-35.4-17.5c-15.3-7.6-31.2-13.3-49.7-12.7
			c-20,0.8-35.4,8.6-48.6,20.2c-5.1,4.5-9.7,9.4-13.8,14.6c-1.7,2.2-2.9,3.1-6.2,1.7c-11-4.7-22.4-9.2-33.6-13.8
			C0,61.9-2,61.2,0,58.6C16.1,36.9,35.4,17.9,64.2,7C77.5,1.9,91.6,0,106.2,0z"/>
		<path class="st0" d="M242.9,182.7c-20.5,0.2-40.6-5.6-59.6-14.4c-10.2-4.7-20-10.2-30.1-15.1c-11.7-5.7-23.9-10.6-37.8-11.8
			c-23.4-2.1-42.4,5-58.3,18.7c-5.7,5-10.8,10.4-15.2,16.2c-1.6,2.2-3.2,2.4-5.8,1.3c-11.3-4.8-22.8-9.5-34.2-14.1
			c-2.2-0.9-3.7-1.5-1.8-4c12.7-17.3,27.4-33.1,48.2-44.3C83,96.4,119.2,96.7,156,110.9c13,5,25,11.7,37.2,18
			c12.3,6.3,25,11.8,39.5,13.6c24.6,3.1,44.5-4.4,61-18.8c5.5-4.7,10.4-9.8,14.5-15.4c1.6-2.2,3-3,6.2-1.7
			c11.3,4.8,22.8,9.4,34.2,14.1c1.8,0.7,3.9,1.1,2.1,3.6c-17.3,23.8-38.4,44.2-71.4,54C268,181.4,256.4,182.8,242.9,182.7z"/>
	</g>
</g>
</svg>
