<?xml version="1.0" encoding="utf-8"?>
<!-- Generator: Adobe Illustrator 22.0.0, SVG Export Plug-In . SVG Version: 6.00 Build 0)  -->
<svg version="1.1" id="Calque_1" xmlns="http://www.w3.org/2000/svg" xmlns:xlink="http://www.w3.org/1999/xlink" x="0px" y="0px"
	 viewBox="0 0 592 592" style="enable-background:new 0 0 592 592;" xml:space="preserve">
<style type="text/css">
	.st0{fill:none;stroke:#FFFFFF;stroke-width:29;stroke-miterlimit:10;}
	.st1{fill:#FFFFFF;}
	.st2{font-family:'Lato-Black';}
	.st3{font-size:592.6536px;}
	.st4{fill:#35599E;}
	.st5{fill:#7D00FF;}
</style>
<path class="st0" d="M507.8,558.2H84.2C65.4,558.2,50,542.8,50,524V100.4c0-18.8,15.4-34.2,34.2-34.2h423.7
	c18.8,0,34.2,15.4,34.2,34.2V524C542,542.8,526.6,558.2,507.8,558.2z"/>
<text transform="matrix(1 0 0 1 69.3955 559.2871)" class="st1 st2 st3">L</text>
<g id="Blrx3j.tif">
	<g>
		<path class="st1" d="M430.5,415.6c7.8,0,16.6-1.7,26-5.8c19.8-8.8,32.7-24.6,43.5-42.5c1.3-2.1-0.1-2.6-1.5-3.3
			c-6.4-3.2-12.8-6.5-19.3-9.7c-6.2-3.1-6.2-3-10.3,2.8c-0.6,0.8-1.1,1.6-1.7,2.4c-8.4,10.7-17.9,19.8-31.8,22.5
			c-13.6,2.6-26-1.1-37.7-8c-10.6-6.3-20.6-13.6-31.9-18.7c-23.4-10.5-46.7-11.1-69.2,2.5c-15.6,9.4-26.5,23.3-35.8,38.6
			c-1.2,1.9-0.4,2.6,1.2,3.4c6.1,2.9,12.2,6,18.3,9c7.5,3.7,7.4,3.6,12.4-3.1c11-14.8,24.2-25.4,44-24.4c8.8,0.5,16.8,3.3,24.3,7.6
			c7.3,4.2,14.4,8.8,21.6,13.1C396.6,410.2,411.3,415.8,430.5,415.6z M333.3,180.1c-9.9,0-19.5,1.6-28.6,5.8
			c-19.7,9.1-32.8,24.9-43.8,42.9c-1.4,2.2,0,2.8,1.6,3.6c7.7,3.8,15.4,7.5,23.1,11.4c2.2,1.2,3.1,0.4,4.2-1.4
			c2.7-4.3,5.8-8.4,9.4-12.2c9-9.6,19.5-16.1,33.1-16.7c12.6-0.5,23.5,4.3,33.9,10.5c8.1,4.8,15.8,10.3,24.2,14.5
			c20.4,10.3,41.5,13.3,63.3,4.8c21.2-8.2,34.9-24.7,46.3-43.6c1.2-2,0.2-2.6-1.3-3.4c-7.4-3.7-14.9-7.3-22.2-11.2
			c-2.7-1.4-4-1.3-5.8,1.5c-6.7,10.4-14.8,19.5-26.3,24.7c-14.7,6.6-28.9,4.2-42.7-2.9c-10.8-5.6-20.5-13.1-31.4-18.7
			C358.6,183.9,346.5,180.1,333.3,180.1z M426.5,331.9c9.3,0,17.2-1.1,24.8-3.8c22.5-8.1,36.9-25,48.7-44.8c1.2-2-0.2-2.4-1.5-3
			c-7.8-3.9-15.6-7.7-23.4-11.7c-2.2-1.1-3.1-0.4-4.2,1.4c-2.8,4.7-6.2,8.9-9.9,12.8c-11.3,12-24.9,18.2-41.7,15.6
			c-9.9-1.5-18.6-6.1-27-11.3c-8.3-5.2-16.5-10.8-25.4-14.9c-25.1-11.8-49.7-12-73.4,3.6c-14.2,9.3-24.3,22.5-32.9,36.8
			c-1.2,2-0.3,2.5,1.3,3.3c7.8,3.9,15.6,7.7,23.4,11.7c1.9,1,2.9,0.8,4-1.1c3-4.8,6.5-9.3,10.4-13.5c10.8-11.4,23.8-17.3,39.8-15.5
			c9.4,1.1,17.8,5.1,25.8,9.8c6.9,4.1,13.6,8.6,20.5,12.6C398.9,327.3,412.6,332.1,426.5,331.9z"/>
		<path class="st1" d="M430.5,415.6c-19.2,0.1-33.9-5.5-47.8-13.8c-7.2-4.3-14.3-8.9-21.6-13.1c-7.5-4.3-15.5-7.2-24.3-7.6
			c-19.8-1-33.1,9.6-44,24.4c-5,6.8-5,6.8-12.4,3.1c-6.1-3-12.2-6-18.3-9c-1.6-0.8-2.4-1.5-1.2-3.4c9.3-15.3,20.1-29.3,35.8-38.6
			c22.5-13.5,45.7-13,69.2-2.5c11.3,5.1,21.3,12.4,31.9,18.7c11.7,6.9,24.1,10.6,37.7,8c14-2.7,23.4-11.8,31.8-22.5
			c0.6-0.8,1.1-1.6,1.7-2.4c4.1-5.8,4.1-5.8,10.3-2.8c6.4,3.2,12.8,6.5,19.3,9.7c1.4,0.7,2.8,1.2,1.5,3.3
			c-10.8,18-23.8,33.8-43.5,42.5C447.1,413.9,438.3,415.6,430.5,415.6z"/>
		<path class="st1" d="M333.3,180.1c13.2,0,25.3,3.8,36.9,9.8c10.8,5.6,20.5,13.1,31.4,18.7c13.8,7.1,28,9.5,42.7,2.9
			c11.5-5.2,19.6-14.3,26.3-24.7c1.8-2.8,3.1-3,5.8-1.5c7.3,3.9,14.8,7.5,22.2,11.2c1.6,0.8,2.5,1.4,1.3,3.4
			c-11.4,18.8-25,35.3-46.3,43.6c-21.8,8.4-42.9,5.5-63.3-4.8c-8.4-4.3-16.1-9.7-24.2-14.5c-10.4-6.3-21.3-11.1-33.9-10.5
			c-13.6,0.6-24.2,7.1-33.1,16.7c-3.5,3.8-6.6,7.8-9.4,12.2c-1.1,1.8-2,2.5-4.2,1.4c-7.6-3.9-15.3-7.7-23.1-11.4
			c-1.6-0.8-2.9-1.4-1.6-3.6c11-18,24.1-33.8,43.8-42.9C313.7,181.7,323.3,180,333.3,180.1z"/>
		<path class="st1" d="M426.5,331.9c-13.9,0.2-27.7-4.6-40.6-11.9c-7-3.9-13.6-8.4-20.5-12.6c-8-4.8-16.3-8.8-25.8-9.8
			c-16-1.8-28.9,4.2-39.8,15.5c-3.9,4.1-7.4,8.6-10.4,13.5c-1.1,1.8-2.1,2-4,1.1c-7.7-4-15.6-7.9-23.4-11.7
			c-1.5-0.8-2.5-1.2-1.3-3.3c8.6-14.4,18.7-27.5,32.9-36.8c23.7-15.6,48.3-15.4,73.4-3.6c8.9,4.2,17.1,9.7,25.4,14.9
			c8.4,5.3,17,9.8,27,11.3c16.8,2.6,30.3-3.6,41.7-15.6c3.7-3.9,7.1-8.2,9.9-12.8c1.1-1.8,2.1-2.5,4.2-1.4c7.7,4,15.6,7.8,23.4,11.7
			c1.2,0.6,2.7,0.9,1.5,3c-11.8,19.8-26.2,36.7-48.7,44.8C443.7,330.8,435.8,331.9,426.5,331.9z"/>
	</g>
</g>
<rect x="-361.4" y="-281" class="st4" width="156.8" height="112.7"/>
<rect x="-141.4" y="-281" class="st5" width="156.8" height="112.7"/>
<g>
	<path class="st1" d="M273.4-165.4c-13.6,0.3-24.2-7.2-34-16.2c-8.4-7.6-15.6-16.6-24.6-23.5c-7-5.4-14.4-10.2-23.9-9.8
		c-4.1,0.2-7.7,1.6-11.3,3.3c-0.7,0.4-1.7,0.9-2.3,0c-0.7-0.9,0.1-1.6,0.7-2.2c10.2-10,20.4-19.9,34.3-24.6
		c11.3-3.8,21.3-1.4,29.9,6.7c9.3,8.8,18.4,17.7,27.6,26.5c5,4.8,10.7,8.4,16.9,11.3c9.9,4.7,19.7,4.4,29.6-0.1
		c1.1-0.5,2.8-2.1,3.7-0.4c0.9,1.5-1.1,2.3-2.1,3.3c-6.1,5.7-11.9,11.7-18.8,16.6C291.5-169.1,283.5-165.1,273.4-165.4z"/>
	<path class="st1" d="M229-245.4c-12.6-2.7-23.1,2.2-33,9.1c-15.4,10.7-28.1,24.3-40.3,38.4c-2,2.4-4.1,4.7-6.2,7
		c-1.8,1.9-3.7,1.9-5.5,0.1c-8.1-8.2-16.4-16.1-24.1-24.7c-2.2-2.4-1.8-4.6,0.3-6.7c13.2-13,25.2-27,39.7-38.6
		c8.1-6.5,17.3-11.3,28.3-11.6c12-0.3,21.1,6,30,12.6c4.4,3.3,8.2,7.5,12.2,11.3c0.7,0.7,1.5,1.5,1,2.6
		C230.8-245,229.8-245.3,229-245.4z"/>
	<path class="st1" d="M300.7-196.2c-7.5,0.7-13.8-3.4-20-7.5c-7.5-5-13.6-11.5-20-17.7c-0.6-0.6-1.4-1.2-1-2.2
		c0.3-0.8,1.1-0.7,1.8-0.6c19,5,30.2-7.2,41.6-18.9c2-2,3.9-4.2,5.8-6.2c1.9-2,3.8-2.3,5.9-0.2c8.4,8.5,17,16.7,24.9,25.6
		c1.6,1.8,1.7,3.5,0,5.3c-8.3,8.7-17.5,16.2-28.7,20.9C307.9-196.4,304.5-196,300.7-196.2z"/>
</g>
</svg>
